<svg version="1.1" viewBox="0.0 0.0 557.8582677165355 557.8582677165355" fill="none" stroke="none" stroke-linecap="square" stroke-miterlimit="10" xmlns:xlink="http://www.w3.org/1999/xlink" xmlns="http://www.w3.org/2000/svg"><clipPath id="p.0"><path d="m0 0l557.8583 0l0 557.8583l-557.8583 0l0 -557.8583z" clip-rule="nonzero"/></clipPath><g clip-path="url(#p.0)"><path fill="#000000" fill-opacity="0.0" d="m0 0l557.8583 0l0 557.8583l-557.8583 0z" fill-rule="evenodd"/><path fill="#000000" d="m214.45775 236.31578l22.419373 13.518188l8.102173 -27.062775l18.555405 19.306976l13.965088 -22.79274l12.418152 22.064163l18.310425 -17.386353l6.312317 25.72226l23.586548 -12.79422l-0.38128662 28.022385l25.215057 -6.201538l-7.0236816 25.401733l26.362915 0.35324097l-13.494385 22.534363l26.88086 7.708008l-19.451996 18.929535l22.717865 13.508453l-22.269257 12.681122l17.364532 17.975037l-25.921143 6.587494l12.944122 23.303589l-28.34259 -0.3340149l6.4309387 25.657166l-25.73648 -7.5737305l-0.73876953 26.536377l-22.418152 -13.51889l-7.9728394 27.2984l-18.684723 -19.542603l-14.029419 22.675568l-12.18219 -22.193695l-18.535095 17.814667l-6.44223 -25.955933l-23.692612 13.15741l0.9056854 -28.46109l-25.697113 6.1579285l7.099945 -24.984497l-25.892792 -0.6096802l13.376358 -22.471222l-26.82782 -7.8895874l19.581314 -18.693909l-23.094437 -13.91333l22.46347 -12.330261l-17.729156 -18.079895l26.16838 -6.418213l-12.592026 -23.496857l28.043564 0.3456726l-6.3016205 -25.421555l25.595184 7.0380707z" fill-rule="evenodd"/><path fill="#000000" d="m327.5903 124.73471l9.401398 5.657013l3.4094849 -11.344826l7.7780457 8.084496l5.867798 -9.55748l5.2020264 9.242302l7.688904 -7.2933197l2.6388855 10.777657l9.900909 -5.370758l-0.17044067 11.74411l10.581726 -2.6084137l-2.9563599 10.6483l11.060883 0.13821411l-5.670227 9.44902l11.275452 3.2203522l-8.168457 7.9404755l9.526611 5.652832l-9.348175 5.3228607l7.2789 7.5267334l-10.878113 2.7704315l5.422241 9.761536l-11.89151 -0.12940979l2.6886597 10.75032l-10.795349 -3.1644897l-0.31988525 11.12146l-9.400848 -5.6572876l-3.3553467 11.443512l-7.8322144 -8.183182l-5.894745 9.508392l-5.102936 -9.296677l-7.783386 7.4729004l-2.6932678 -10.875534l-9.945557 5.5230103l0.390625 -11.928177l-10.783966 2.590332l2.9882202 -10.47348l-10.863556 -0.24584961l5.6206665 -9.422516l-11.253143 -3.296463l8.222656 -7.8417816l-9.684479 -5.8223724l9.429535 -5.175888l-7.4318237 -7.5705414l10.981781 -2.699585l-5.2744446 -9.842667l11.766022 0.13441467l-2.6344604 -10.651642l10.736267 2.9400635z" fill-rule="evenodd"/><path fill="#000000" d="m228.24525 135.60582l6.9357758 4.178192l2.510437 -8.371033l5.739395 5.96904l4.324127 -7.051117l3.8399506 6.8225555l5.6680603 -5.379547l1.9501343 7.9546814l7.300171 -3.9599152l-0.12142944 8.666885l7.803253 -1.9211121l-2.1764832 7.8571777l8.157654 0.10601807l-4.1784363 6.9711456l8.317017 2.380661l-6.021515 5.856964l7.028137 4.1751404l-6.892517 3.9247742l5.371063 5.557251l-8.02182 2.0405731l4.0025635 7.2058105l-8.770264 -0.09983826l1.9868469 7.9345245l-7.962921 -2.339264l-0.23184204 8.207321l-6.9353943 -4.178406l-2.4704437 8.443893l-5.7793884 -6.0419006l-4.3440094 7.0148773l-3.766922 -6.862625l-5.7376556 5.512024l-1.9902954 -8.026932l-7.333023 4.0722656l0.28373718 -8.802628l-7.952423 1.9076843l2.2000427 -7.7281494l-8.012146 -0.18539429l4.1419067 -6.951599l-8.300598 -2.4368286l6.061508 -5.7841034l-7.1446075 -4.3003235l6.9525757 -3.8162842l-5.4838715 -5.58963l8.098297 -1.9882507l-3.8935852 -7.265625l8.677719 0.10348511l-1.9468536 -7.861679l7.9192657 2.1736298z" fill-rule="evenodd"/><path fill="#000000" d="m149.35168 174.00267l6.475113 3.9000092l2.3443756 -7.8148346l5.358017 5.5719147l4.0375977 -6.5827484l3.5845947 6.36882l5.292206 -5.0223846l1.8201447 7.4258423l6.815857 -3.697235l-0.11393738 8.090851l7.285431 -1.7939606l-2.0325775 7.3350983l7.6161804 0.09841919l-3.9015808 6.5081024l7.7648163 2.2218628l-5.622238 5.4680786l6.5613403 3.897171l-6.4352875 3.6643982l5.01416 5.1875153l-7.4894714 1.9054871l3.736374 6.7266083l-8.188095 -0.09259033l1.8544006 7.407028l-7.434204 -2.1832428l-0.21704102 7.6618347l-6.4747314 -3.9002075l-2.3070526 7.882843l-5.395355 -5.639923l-4.0561523 6.548935l-3.5164032 -6.40625l-5.357193 5.1460724l-1.8576355 -7.493286l-6.8465576 3.8021088l0.2655182 -8.21759l-7.424713 1.7814331l2.0545502 -7.2146454l-7.480301 -0.17253113l3.867447 -6.4898376l-7.7494507 -2.274292l5.659561 -5.4000854l-6.6700745 -4.0140076l6.491333 -3.5631256l-5.1194763 -5.2177277l7.5608826 -1.8566589l-3.6346283 -6.7824554l8.1017 0.09599304l-1.8170776 -7.3390045l7.393463 2.028595z" fill-rule="evenodd"/><path fill="#000000" d="m106.31901 244.16505l5.2978516 3.1891174l1.9200058 -6.3934174l4.3834 4.5570374l3.305336 -5.3858643l2.932022 5.209305l4.3316956 -4.1096344l1.4879303 6.074356l5.578232 -3.0259094l-0.09487915 6.6187744l5.9621124 -1.4690399l-1.6647491 6.0009155l6.232361 0.07897949l-3.1940155 5.3247375l6.3535767 1.81604l-4.601837 4.4743347l5.3684235 3.1867676l-5.2668 2.9989624l4.1020966 4.2426453l-6.1291046 1.5603027l3.0561523 5.501953l-6.7003784 -0.07406616l1.5159912 6.05896l-6.0830536 -1.7845154l-0.17915344 6.267853l-5.2975616 -3.1893005l-1.8894653 6.449066l-4.413933 -4.612671l-3.3205185 5.358185l-2.8762207 -5.239929l-4.38488 4.210846l-1.5186081 -6.129547l-5.6033707 3.1117249l0.2189331 -6.722473l-6.0760803 1.4588013l1.682724 -5.9023743l-6.1211853 -0.13961792l3.1660995 -5.3098145l-6.3410034 -1.8589478l4.6323624 -4.418701l-5.4573746 -3.282318l5.3126526 -2.9161377l-4.1882706 -4.267334l6.1875305 -1.5203857l-2.9728928 -5.547653l6.629692 0.07688904l-1.4854584 -6.0033264l6.049736 1.6580048z" fill-rule="evenodd"/><path fill="#000000" d="m100.517746 316.46542l4.308281 2.5915527l1.5632935 -5.198639l3.564148 3.7039795l2.6898117 -4.3797913l2.383484 4.2346497l3.524292 -3.3424072l1.2086945 4.938324l4.5379105 -2.461609l-0.07884979 5.381378l4.8497467 -1.1958923l-1.3555832 4.879425l5.0691757 0.06262207l-2.5992432 4.3300476l5.1673126 1.4749146l-3.74411 3.638977l4.365677 2.5895996l-4.2845917 2.4396362l3.3354187 3.4483948l-4.9855957 1.2701721l2.4843903 4.4725647l-5.449852 -0.058563232l1.231514 4.925812l-4.947296 -1.4493408l-0.14730072 5.0960693l-4.3080444 -2.5916748l-1.5384674 5.2438354l-3.5889664 -3.749176l-2.702156 4.3573l-2.338089 -4.2595825l-3.5675812 3.4247131l-1.2336197 -4.983185l-4.5583878 2.531372l0.17977905 -5.4656982l-4.942436 1.1875916l1.370163 -4.799286l-4.9787216 -0.111968994l2.576538 -4.3179016l-5.1570816 -1.5097961l3.7689285 -3.59375l-4.438011 -2.6672974l4.321869 -2.372284l-3.40551 -3.4684753l5.033104 -1.2377014l-2.4166336 -4.509735l5.3923416 0.06085205l-1.2066956 -4.880615l4.920227 1.3465271z" fill-rule="evenodd"/></g></svg>