<svg version="1.1" viewBox="0.0 0.0 557.8582677165355 557.8582677165355" fill="none" stroke="none" stroke-linecap="square" stroke-miterlimit="10" xmlns:xlink="http://www.w3.org/1999/xlink" xmlns="http://www.w3.org/2000/svg"><clipPath id="p.0"><path d="m0 0l557.8583 0l0 557.8583l-557.8583 0l0 -557.8583z" clip-rule="nonzero"/></clipPath><g clip-path="url(#p.0)"><path fill="#000000" fill-opacity="0.0" d="m0 0l557.8583 0l0 557.8583l-557.8583 0z" fill-rule="evenodd"/><path fill="#000000" d="m229.21909 231.48897l22.304062 14.63768l7.0200653 -27.55783l18.724365 20.462158l12.876801 -22.97435l12.828949 23.094727l17.290497 -17.272507l6.9935913 26.654602l22.585419 -12.377197l0.54071045 28.79889l24.388275 -5.545166l-6.0224 25.88556l25.72116 1.2319946l-12.426178 22.724213l26.46579 8.810913l-18.353546 18.821533l22.594818 14.637512l-21.304443 12.304321l17.519623 19.053467l-25.0643 5.9187317l13.382263 24.386383l-27.651154 -1.2774353l7.1071167 26.591553l-25.345367 -8.635132l0.14367676 27.259247l-22.302856 -14.638336l-6.8862915 27.804321l-18.858154 -20.708649l-12.943329 22.851746l-12.603058 -23.220123l-17.495667 17.705475l-7.1278687 -26.89914l-22.677032 12.747131l-0.04360962 -29.232697l-24.859818 5.4844666l6.110382 -25.454071l-25.271027 -1.4801636l12.31311 -22.663147l-26.419983 -8.995911l18.487335 -18.575012l-22.975266 -15.066193l21.505295 -11.937164l-17.878616 -19.173279l25.310928 -5.7365723l-13.045197 -24.573486l27.35991 1.279602l-6.9733276 -26.345078l25.19014 8.079758z" fill-rule="evenodd"/><path fill="#000000" d="m335.91455 120.49418l9.352661 6.126137l2.955536 -11.551926l7.8486023 8.568474l5.411133 -9.633232l5.374115 9.673988l7.260895 -7.2452927l2.9244385 11.168106l9.480652 -5.1957016l0.21627808 12.069206l10.234558 -2.3331451l-2.5363464 10.850723l10.79129 0.5066223l-5.221985 9.528229l11.100922 3.6826172l-7.707489 7.894882l9.47467 6.1259613l-8.943176 5.164673l7.343628 7.9785767l-10.518341 2.4899445l5.605774 10.215103l-11.601074 -0.5249481l2.9721375 11.141663l-10.63092 -3.609375l0.050231934 11.424103l-9.352142 -6.126419l-2.8995056 11.655197l-7.9046326 -8.671738l-5.439026 9.581879l-5.2792664 -9.726639l-7.3471375 7.426834l-2.980713 -11.270554l-9.519226 5.3507843l-0.007537842 -12.25119l-10.432373 2.3078766l2.5730896 -10.669922l-10.602325 -0.61079407l5.1744995 -9.502609l-11.0816345 -3.760147l7.76355 -7.791626l-9.634125 -6.305481l9.027313 -5.0108795l-7.4942017 -8.028641l10.621735 -2.4136963l-5.464264 -10.293655l11.478851 0.5259552l-2.9160767 -11.038391l10.565979 3.3766785z" fill-rule="evenodd"/><path fill="#000000" d="m239.38528 128.39745l6.8999634 4.5244293l2.1756134 -8.524033l5.791565 6.3262634l3.9873505 -7.107155l3.96698 7.1412125l5.3524475 -5.3442307l2.1608582 8.242943l6.9902954 -3.830841l0.16381836 8.906921l7.547333 -1.7180481l-1.8666687 8.006714l7.958954 0.37783813l-3.8479004 7.0297546l8.188477 2.7217865l-5.6815796 5.8234406l6.9899597 4.524338l-6.5939026 3.8081512l5.418915 5.890747l-7.7565613 1.833664l4.138031 7.540619l-8.556183 -0.3916626l2.1960144 8.223434l-7.841797 -2.667572l0.041168213 8.430801l-6.899597 -4.5246277l-2.1342468 8.60025l-5.832947 -6.4024963l-4.0079346 7.0692596l-3.897049 -7.180023l-5.41597 5.4781647l-2.2023773 -8.318558l-7.0187073 3.9452667l-0.0099487305 -9.041153l-7.6932526 1.6993256l1.8938751 -7.8732605l-7.8196564 -0.45466614l3.8128967 -7.010849l-8.174271 -2.779007l5.722946 -5.7472076l-7.1076202 -4.6568756l6.656021 -3.6946259l-5.530014 -5.9277496l7.8328705 -1.777359l-4.0337067 -7.598526l8.466049 0.3923645l-2.1546326 -8.147217l7.7938232 2.495819z" fill-rule="evenodd"/><path fill="#000000" d="m163.69707 165.27554l6.4416656 4.223236l2.031784 -7.9576416l5.406708 5.9053955l3.723175 -6.635071l3.7031708 6.6663055l4.997528 -4.989395l2.016861 7.694916l6.5265656 -3.576706l0.15234375 8.314926l7.0464935 -1.6043854l-1.7433319 7.474655l7.430649 0.3521881l-3.5929565 6.56279l7.64476 2.5403137l-5.30484 5.436783l6.52565 4.2231445l-6.156479 3.5554962l5.058838 5.4988403l-7.2418365 1.7123413l3.862854 7.039154l-7.98822 -0.36505127l2.0496674 7.676712l-7.3210907 -2.4897156l0.037857056 7.870453l-6.4413147 -4.223419l-1.9931641 8.028778l-5.4453278 -5.9765472l-3.7423706 6.5996704l-3.637909 -6.70253l-5.0568542 5.114441l-2.0556183 -7.765518l-6.5530853 3.683548l-0.008682251 -8.440247l-7.1827087 1.5869141l1.768692 -7.3500977l-7.3005676 -0.42388916l3.5602875 -6.5451355l-7.6315002 -2.5937347l5.34346 -5.365631l-6.6355133 -4.346863l6.2144623 -3.449524l-5.162552 -5.533386l7.31308 -1.6597595l-3.7654572 -7.093231l7.9040833 0.3657074l-2.0110626 -7.6055603l7.2763367 2.3293915z" fill-rule="evenodd"/><path fill="#000000" d="m124.0156 235.9955l5.270424 3.4535065l1.6642303 -6.5101776l4.4231873 4.8298187l3.0480194 -5.428589l3.0290222 5.4526215l4.090515 -4.082611l1.64888 6.294449l5.3414764 -2.9272919l0.12301636 6.8020325l5.7665253 -1.3139191l-1.4280853 6.115036l6.0805054 0.28657532l-2.941452 5.369446l6.2552643 2.076538l-4.342087 4.4486694l5.3391724 3.4534302l-5.0386353 2.909851l4.138611 4.497284l-5.926422 1.4022827l3.159607 5.757599l-6.5367584 -0.29699707l1.6757355 6.279541l-5.9904327 -2.0352173l0.029403687 6.4384155l-5.2701416 -3.4536438l-1.6326447 6.5683594l-4.4547577 -4.8880005l-3.0637512 5.3996277l-2.975586 -5.4822693l-4.139099 4.184906l-1.6805878 -6.352173l-5.3631897 3.014679l-0.00541687 -6.9045715l-5.8779984 1.2996521l1.4488068 -6.0131226l-5.974045 -0.34527588l2.9147186 -5.355011l-6.2444077 -2.1202393l4.37368 -4.3904724l-5.429039 -3.554596l5.0860443 -2.8231812l-4.2234573 -4.525528l5.984688 -1.3592682l-3.0798874 -5.8018646l6.4679184 0.2975464l-1.6441498 -6.221344l5.953827 1.904068z" fill-rule="evenodd"/><path fill="#000000" d="m120.71259 310.14062l4.285919 2.806488l1.3552551 -5.2934875l3.5964584 3.9257202l2.4805145 -4.414459l2.462326 4.432434l3.328125 -3.3203735l1.3395538 5.117218l4.3453064 -2.3813782l0.098342896 5.530304l4.690628 -1.0697632l-1.1630859 4.972168l4.9456024 0.23144531l-2.3938293 4.366333l5.0872955 1.6867065l-3.5328217 3.6180725l4.3418427 2.8063965l-4.098984 2.3671265l3.3650665 3.6554565l-4.820694 1.1416016l2.5684814 4.6803894l-5.3167114 -0.23980713l1.3614044 5.1051025l-4.8719025 -1.6531677l0.02230835 5.2347107l-4.2856903 -2.8066406l-1.3295746 5.34079l-3.6221313 -3.9730225l-2.4933014 4.39093l-2.4188538 -4.4565735l-3.367653 3.403595l-1.3653412 -5.1641846l-4.3629913 2.4524536l-0.002670288 -5.6137085l-4.781288 1.0581665l1.1799164 -4.889282l-4.859001 -0.27920532l2.372078 -4.3545837l-5.078453 -1.7222595l3.5585022 -3.5707397l-4.4149017 -2.8886719l4.13752 -2.2966309l-3.4340744 -3.6783752l4.86808 -1.1066895l-2.5036163 -4.7163696l5.260704 0.2402649l-1.3357315 -5.0578003l4.8421555 1.5465698z" fill-rule="evenodd"/></g></svg>