<svg version="1.1" viewBox="0.0 0.0 557.8582677165355 557.8582677165355" fill="none" stroke="none" stroke-linecap="square" stroke-miterlimit="10" xmlns:xlink="http://www.w3.org/1999/xlink" xmlns="http://www.w3.org/2000/svg"><clipPath id="p.0"><path d="m0 0l557.8583 0l0 557.8583l-557.8583 0l0 -557.8583z" clip-rule="nonzero"/></clipPath><g clip-path="url(#p.0)"><path fill="#000000" fill-opacity="0.0" d="m0 0l557.8583 0l0 557.8583l-557.8583 0z" fill-rule="evenodd"/><path fill="#000000" d="m182.25493 164.19992l12.591141 7.49881l4.7305145 -15.313965l10.375275 10.786652l8.019104 -12.9383545l6.892044 12.37709l10.443802 -9.912994l3.4215088 14.475616l13.399017 -7.3523254l-0.37347412 15.811371l14.281967 -3.6422424l-4.111786 14.370728l14.893555 0.049179077l-7.7516785 12.789902l15.144745 4.195526l-11.097534 10.7901l12.759857 7.491638l-12.654083 7.281021l9.7099 10.041992l-14.683075 3.8640137l7.1822205 13.073334l-16.012238 -0.027069092l3.488922 14.438232l-14.498901 -4.1262817l-0.5670929 14.975067l-12.590439 -7.499237l-4.6587677 15.446167l-10.4470215 -10.918823l-8.054779 12.872589l-6.7579956 -12.451508l-10.573166 10.155914l-3.4935913 -14.60672l-13.460999 7.5578613l0.67225647 -16.06189l-14.554108 3.6203918l4.152527 -14.135773l-14.62648 -0.1965332l7.6846313 -12.753586l-15.113739 -4.298279l11.169266 -10.657913l-12.970337 -7.717911l12.761841 -7.0841827l-9.915344 -10.09906l14.821838 -3.769928l-6.9822235 -13.184372l15.843216 0.035339355l-3.41716 -14.30603l14.422073 3.8248901z" fill-rule="evenodd"/><path fill="#000000" d="m246.80634 100.60578l5.28006 3.1379547l1.9904175 -6.419754l4.3491516 4.516693l3.3693237 -5.425392l2.8871155 5.1845474l4.3855286 -4.1584015l1.4302063 6.065338l5.6245117 -3.0863647l-0.16253662 6.6265717l5.9935913 -1.5318222l-1.7304688 6.0242157l6.2488403 0.01499939l-3.25708 5.363083l6.3526917 1.7526016l-4.6601257 4.5262375l5.3508606 3.1348724l-5.3119507 3.0561981l4.070282 4.2048645l-6.1619873 1.6249084l3.0086365 5.476242l-6.7182007 -0.0053100586l1.4584961 6.049637l-6.081726 -1.7238312l-0.24346924 6.2761536l-5.2797546 -3.1381226l-1.9603882 6.475128l-4.379181 -4.5720673l-3.3842773 5.3978577l-2.830841 -5.21579l-4.4398956 4.260254l-1.4604187 -6.1202393l-5.6505737 3.1725006l0.28797913 -6.731659l-6.1077576 1.5227661l1.747467 -5.925766l-6.1367188 -0.07684326l3.2289276 -5.3478394l-6.3396454 -1.7956848l4.6901855 -4.470871l-5.439087 -3.229622l5.3570557 -2.9737396l-4.156433 -4.2287064l6.220154 -1.5855331l-2.924652 -5.5228424l6.647278 0.008834839l-1.4284515 -5.9942627l6.0496216 1.5975494z" fill-rule="evenodd"/><path fill="#000000" d="m190.61316 107.30451l3.8952637 2.3176956l1.4656677 -4.736923l3.209198 3.3348312l2.4829865 -4.002594l2.1311646 3.8271637l3.2329102 -3.067215l1.0570068 4.476639l4.147064 -2.2756042l-0.117492676 4.8902283l4.4198303 -1.1282501l-1.2740784 4.445122l4.6086426 0.013366699l-2.4002228 3.9566574l4.685852 1.2957306l-3.4353027 3.3385696l3.9474792 2.3154526l-3.9165344 2.253456l3.0034027 3.1046143l-4.543991 1.1968842l2.2208862 4.0424805l-4.9548035 -0.0063934326l1.0778503 4.4650574l-4.4860077 -1.2743835l-0.17729187 4.631592l-3.8950653 -2.3178253l-1.4434662 4.777817l-3.2313843 -3.3757172l-2.4940186 3.9822693l-2.089676 -3.8502045l-3.2729797 3.1423645l-1.0792847 -4.5171814l-4.16626 2.3391876l0.20996094 -4.967743l-4.5040436 1.121521l1.2866669 -4.372467l-4.5259705 -0.05897522l2.3794556 -3.9454193l-4.6762543 -1.3275146l3.457489 -3.2976837l-4.0125732 -2.3854065l3.9498596 -2.1925964l-3.0669708 -3.1222382l4.586899 -1.1678085l-2.158966 -4.0768356l4.9024963 0.008972168l-1.0556641 -4.4241867l4.4622803 1.1811829z" fill-rule="evenodd"/><path fill="#000000" d="m145.82019 129.41582l3.6365662 2.163391l1.3686981 -4.422203l2.9959564 3.1129684l2.318451 -3.73674l1.9894409 3.572647l3.0185242 -2.8635788l0.98654175 4.1790237l3.8719482 -2.124649l-0.11001587 4.565216l4.126526 -1.0535736l-1.1898193 4.149765l4.3027344 0.012161255l-2.2411652 3.6938477l4.3747253 1.2092896l-3.2075043 3.1168976l3.6853027 2.1612854l-3.656723 2.1039581l2.803833 2.898056l-4.242447 1.1176605l2.0731812 3.7736359l-4.6259155 -0.005630493l1.006012 4.168228l-4.188156 -1.1893768l-0.16584778 4.323761l-3.6363525 -2.1634827l-1.347992 4.4603424l-3.0166626 -3.151123l-2.3287506 3.7177734l-1.9506989 -3.594162l-3.0559387 2.933731l-1.0073395 -4.216858l-3.8898773 2.1839905l0.19636536 -4.6375732l-4.2051544 1.047287l1.2015533 -4.0819397l-4.2255554 -0.054733276l2.2218018 -3.6833496l-4.3657684 -1.2389526l3.2282104 -3.0787506l-3.7460785 -2.226593l3.6878357 -2.0471344l-2.8631744 -2.914505l4.2825165 -1.0905151l-2.015396 -3.805725l4.5770874 0.008041382l-0.9852905 -4.130066l4.1660004 1.1023712z" fill-rule="evenodd"/><path fill="#000000" d="m121.110176 169.24391l2.9754028 1.7690125l1.120903 -3.617859l2.4509964 2.5459442l1.8979568 -3.0573273l1.6272736 2.9222107l2.4706573 -2.3431702l0.8064575 3.418457l3.1688843 -1.7388611l-0.09094238 3.734604l3.3769836 -0.8627167l-0.9744568 3.3949738l3.5209656 0.009063721l-1.8347168 3.0222168l3.5796509 0.9883728l-2.6253662 2.5504456l3.0152893 1.7672882l-2.992752 1.7218933l2.2938232 2.3701935l-3.4718475 0.9151764l1.695755 3.086609l-3.785431 -0.0036621094l0.8223877 3.4096222l-3.4269867 -0.9721222l-0.13656616 3.5371094l-2.975235 -1.769104l-1.1039581 3.6490784l-2.4679413 -2.5771637l-1.9063873 3.0417938l-1.5955582 -2.939804l-2.501297 2.4005737l-0.82347107 -3.449417l-3.1835632 1.7874146l0.1616211 -3.7938232l-3.44133 0.857605l0.9840622 -3.3394775l-3.4578018 -0.043914795l1.8188553 -3.0136414l-3.5723114 -1.0126343l2.6423035 -2.5192413l-3.06501 -1.820694l3.018196 -1.6754303l-2.3423843 -2.3836365l3.5046463 -0.89297485l-1.6484528 -3.112854l3.7454681 0.005630493l-0.80545044 -3.3784027l3.408867 0.90093994z" fill-rule="evenodd"/><path fill="#000000" d="m117.42457 210.06618l2.4196472 1.4375305l0.9126129 -2.9417725l1.9929199 2.069336l1.5444946 -2.4862213l1.3228378 2.3754578l2.0101395 -1.9057312l0.6550827 2.7791443l2.577896 -1.4145813l-0.074905396 3.0364227l2.7469482 -0.702301l-0.79345703 2.7605133l2.8638306 0.0064697266l-1.493042 2.4576569l2.911316 0.80267334l-2.1360168 2.074295l2.4520874 1.4361115l-2.4346466 1.4007416l1.8651276 1.9264679l-2.824112 0.7449646l1.3784943 2.5091095l-3.078949 -0.0019989014l0.6680603 2.7719574l-2.78714 -0.78948975l-0.11198425 2.8758392l-2.4195023 -1.4375916l-0.89884186 2.9671478l-2.006691 -2.0947266l-1.5513458 2.4736176l-1.2970428 -2.3897858l-2.0350647 1.9524078l-0.6689148 -2.804306l-2.5898514 1.4540558l0.13240051 -3.0845795l-2.7992706 0.69815063l0.801239 -2.715393l-2.8124466 -0.034820557l1.4801483 -2.4506683l-2.9053345 -0.82240295l2.149788 -2.048935l-2.4925156 -1.4795227l2.4553146 -1.3629608l-1.9046173 -1.9373932l2.8507843 -0.7269287l-1.3400116 -2.5304565l3.0464325 0.003616333l-0.654274 -2.746582l2.7724304 0.7316284z" fill-rule="evenodd"/><path fill="#000000" d="m357.85788 342.2782l-2.525177 14.555145l15.840118 -0.8929138l-6.3471375 13.610199l14.794403 3.0549622l-9.042175 10.869446l12.843933 6.412689l-12.2031555 8.319l11.509857 10.109772l-14.7717285 5.1936646l8.384308 12.24762l-14.749573 1.1479187l5.180847 14.121948l-14.56311 -2.8537903l1.4296265 15.814545l-13.885468 -6.72406l-2.45932 14.712402l-11.182434 -9.429291l-5.8911133 12.718811l-8.730438 -12.549683l-9.585022 11.38855l-5.593872 -15.1736145l-12.144897 8.36972l-1.2671204 -15.178619l-14.065277 4.7168884l2.5257874 -14.554596l-15.937347 1.0072021l6.4443665 -13.724487l-14.746048 -3.1118164l9.158096 -10.768616l-13.114243 -6.4499817l12.299255 -8.433258l-11.721909 -10.096344l15.1085205 -4.998596l-8.459579 -12.513031l14.546341 -1.0269165l-4.9506836 -13.920685l14.505951 2.8030396l-1.3236084 -15.821259l13.788239 6.8383484l2.5949707 -14.991119l11.037994 9.600403l5.871887 -12.93338l8.691986 12.714111l9.758026 -11.238098l5.5269165 15.016449l12.047638 -8.255402l1.5192566 15.000122z" fill-rule="evenodd"/><path fill="#000000" d="m439.3955 381.09866l-1.0527649 6.1013184l6.6428833 -0.3673706l-2.656067 5.7034607l6.206024 1.287384l-3.7875366 4.5531616l5.3894653 2.694275l-5.11438 3.482483l4.8315735 4.243744l-6.1929626 2.17099l3.521637 5.138672l-6.185425 0.47479248l2.1789246 5.9230957l-6.1089478 -1.2029419l0.6064148 6.6311035l-5.826416 -2.8252869l-1.0250549 6.1672974l-4.6939697 -3.958313l-2.46521 5.329956l-3.6669312 -5.265503l-4.014984 4.770569l-2.3526306 -6.364197l-5.0898743 3.5037537l-0.5379944 -6.3644104l-5.896881 1.971405l1.053009 -6.1011047l-6.6836243 0.4152527l2.6968079 -5.751343l-6.1857605 -1.3111877l3.8362122 -4.5108643l-5.5028687 -2.710022l5.1546326 -3.5303345l-4.9205017 -4.2381897l6.33432 -2.0890808l-3.5533447 -5.2499695l6.1002502 -0.4241333l-2.082306 -5.8386536l6.0849304 1.1816406l-0.5619507 -6.63385l5.7857056 2.873169l1.0818481 -6.2841187l4.633423 4.029999l2.4570618 -5.4198914l3.650879 5.334381l4.087616 -4.7073975l2.324463 6.298279l5.049164 -3.4558716l0.64364624 6.2897034z" fill-rule="evenodd"/><path fill="#000000" d="m413.4737 330.23212l-0.7791748 4.5021057l4.900543 -0.27389526l-1.961792 4.2092285l4.5775757 0.9471741l-2.795929 3.361023l3.9745789 1.9855652l-3.7742615 2.5716248l3.562378 3.1289978l-4.5693665 1.6044617l2.5957031 3.7898865l-4.5631104 0.3529663l1.6048584 4.3692017l-4.505951 -0.8848877l0.44451904 4.8922424l-4.296875 -2.0820007l-0.75875854 4.5507507l-3.4609985 -2.918457l-1.8208008 3.9335632l-2.7028198 -3.8833923l-2.9638062 3.5215454l-1.7328186 -4.6946106l-3.7562256 2.5873413l-0.39416504 -4.695526l-4.350891 1.4570618l0.7793579 -4.5019226l-4.9305725 0.30926514l1.9918213 -4.2445984l-4.562622 -0.9647522l2.8318481 -3.329834l-4.0582275 -1.9971008l3.803955 -2.606964l-3.6279907 -3.1249084l4.6736145 -1.5440674l-2.6190186 -3.8719788l4.500244 -0.31555176l-1.5336304 -4.306946l4.4882812 0.86920166l-0.41174316 -4.8943176l4.266815 2.1173706l0.8006897 -4.636963l3.4163208 2.9713745l1.8148193 -3.999939l2.690979 3.9342346l3.0173645 -3.4749756l1.7120361 4.6459656l3.7261658 -2.5519714l0.47216797 4.6403503z" fill-rule="evenodd"/><path fill="#000000" d="m377.281 295.56943l-0.7270813 4.202942l4.5750732 -0.25531006l-1.8311462 3.9294434l4.273651 0.88461304l-2.6100159 3.1375427l3.7108154 1.8539734l-3.523407 2.4004822l3.3260498 2.9214172l-4.265808 1.4974976l2.423645 3.53833l-4.2600403 0.32913208l1.4986267 4.0791016l-4.2068176 -0.82650757l0.41540527 4.5672913l-4.011688 -1.9440613l-0.7080078 4.2483826l-3.2313843 -2.7248535l-1.699585 3.6720886l-2.5236511 -3.6256104l-2.766693 3.2873535l-1.618103 -4.3828735l-3.5065918 2.4151306l-0.3683777 -4.383606l-4.0618286 1.3599243l0.7272644 -4.20282l-4.603119 0.28833008l1.8591919 -3.9624634l-4.259674 -0.9010315l2.6434937 -3.108368l-3.7888794 -1.8647766l3.5511475 -2.4334717l-3.3872986 -2.917572l4.363098 -1.4411316l-2.445404 -3.6149597l4.201355 -0.29421997l-1.4321289 -4.020935l4.1903076 0.8117981l-0.38479614 -4.569214l3.983612 1.9770813l0.7471924 -4.3288574l3.1896667 2.7742615l1.6939697 -3.7340698l2.5125732 3.6730652l2.8167114 -3.2438354l1.5987244 4.3374634l3.4785156 -2.382141l0.4411621 4.332123z" fill-rule="evenodd"/><path fill="#000000" d="m331.7307 286.1418l-0.5939331 3.438446l3.7433472 -0.20779419l-1.497345 3.2144165l3.4969788 0.72476196l-2.1348267 2.5663452l3.0366821 1.5177002l-2.8823547 1.9631042l2.7221375 2.3909302l-3.4900208 1.2241516l1.9838867 2.8954468l-3.4855652 0.26828003l1.2271729 3.3376465l-3.4422913 -0.67718506l0.3409729 3.736786l-3.282898 -1.5914612l-0.5783081 3.4756165l-2.6446228 -2.230133l-1.38974 3.0039062l-2.0657654 -2.9668884l-2.2630005 2.6888733l-1.3249817 -3.5862122l-2.8685608 1.9750977l-0.30245972 -3.5865173l-3.32312 1.1116333l0.5940552 -3.438324l-3.7662964 0.23477173l1.5203247 -3.241394l-3.4855652 -0.7382202l2.1622314 -2.54245l-3.100586 -1.5265808l2.9050598 -1.9900818l-2.7722473 -2.3878174l3.569641 -1.178009l-2.001709 -2.9581604l3.4375305 -0.23971558l-1.1727295 -3.290039l3.428772 0.66519165l-0.31591797 -3.7383728l3.2599487 1.6184692l0.61032104 -3.5414429l2.6105042 2.2705078l1.3851624 -3.054596l2.0567017 3.0057068l2.3039246 -2.6532593l1.3091125 3.5490417l2.8456116 -1.9480896l0.3619995 3.544403z" fill-rule="evenodd"/><path fill="#000000" d="m292.63763 296.9738l-0.48199463 2.7958374l3.04422 -0.16784668l-1.2167969 2.6133728l2.8441467 0.5904236l-1.7353821 2.0861816l2.4700012 1.2350464l-2.3434753 1.595459l2.214447 1.9450378l-2.83786 0.99438477l1.6142273 2.3550415l-2.8345337 0.21710205l0.9989624 2.714386l-2.7996216 -0.5516968l0.27838135 3.0387268l-2.670288 -1.295105l-0.46929932 2.8260498l-2.1513672 -1.8142395l-1.1293335 2.4422302l-1.6808472 -2.413147l-1.8395996 2.185791l-1.0785828 -2.916565l-2.3322754 1.6051941l-0.24700928 -2.916504l-2.70224 0.9029541l0.4821167 -2.7957458l-3.0628662 0.18978882l1.2354431 -2.635315l-2.8348389 -0.60131836l1.7576904 -2.066803l-2.5220032 -1.242279l2.3619385 -1.6173706l-2.2552185 -1.9425049l2.9026794 -0.9568176l-1.6287842 -2.406067l2.7955017 -0.19390869l-0.9546814 -2.6756897l2.7886353 0.54196167l-0.25802612 -3.0400085l2.6516418 1.3170776l0.4953003 -2.8795776l2.1236572 1.8470764l1.1255798 -2.48349l1.6734924 2.4447632l1.8728638 -2.1568604l1.0657043 2.8863525l2.3136292 -1.583252l0.29541016 2.8822632z" fill-rule="evenodd"/></g></svg>