<svg version="1.1" viewBox="0.0 0.0 557.8582677165355 557.8582677165355" fill="none" stroke="none" stroke-linecap="square" stroke-miterlimit="10" xmlns:xlink="http://www.w3.org/1999/xlink" xmlns="http://www.w3.org/2000/svg"><clipPath id="p.0"><path d="m0 0l557.8583 0l0 557.8583l-557.8583 0l0 -557.8583z" clip-rule="nonzero"/></clipPath><g clip-path="url(#p.0)"><path fill="#000000" fill-opacity="0.0" d="m0 0l557.8583 0l0 557.8583l-557.8583 0z" fill-rule="evenodd"/><path fill="#ffffff" d="m285.3829 277.403l133.27567 -59.82022l-132.40903 62.993103z" fill-rule="evenodd"/><path fill="#000000" d="m286.56802 277.76172l-187.90082 -40.624023l187.54214 44.954834z" fill-rule="evenodd"/><path fill="#000000" d="m285.27048 277.76172l-185.15884 51.522064l186.88971 -47.480133z" fill-rule="evenodd"/><path fill="#000000" d="m288.9513 279.63943l53.180756 -157.9558l-56.933807 157.2336z" fill-rule="evenodd"/><path fill="#000000" d="m289.6711 277.76172l60.1091 133.20584l-63.284393 -132.267z" fill-rule="evenodd"/><path fill="#000000" d="m288.2291 280.64813l-118.412674 85.65347l116.82384 -88.61212z" fill-rule="evenodd"/><path fill="#000000" d="m287.2021 281.12448l24.712952 -231.32658l-19.256409 232.57094z" fill-rule="evenodd"/><path fill="#000000" d="m287.00134 277.76172l-156.72804 -111.339905l154.7083 115.16516z" fill-rule="evenodd"/><path fill="#000000" d="m286.42358 277.97836l-164.44843 27.061005l165.60397 -23.452393z" fill-rule="evenodd"/><path fill="#000000" d="m285.55936 280.937l98.99982 134.07007l-96.33008 -136.73984z" fill-rule="evenodd"/><path fill="#000000" d="m288.08466 281.51477l163.36752 33.048096l-163.15085 -36.873383z" fill-rule="evenodd"/><path fill="#000000" d="m288.9513 279.56723l50.43878 -158.82245l-54.1196 158.17245z" fill-rule="evenodd"/><path fill="#000000" d="m286.64026 278.19504l-105.13376 101.52753l107.73129 -99.50537z" fill-rule="evenodd"/><path fill="#000000" d="m289.96 278.0506l-40.696243 -132.91457l37.23207 134.4312z" fill-rule="evenodd"/><path fill="#000000" d="m287.2027 277.49408l67.69339 -153.15596l-64.387146 155.14134z" fill-rule="evenodd"/><path fill="#000000" d="m287.5069 276.9697l112.92874 -92.7961l-111.12564 95.610275z" fill-rule="evenodd"/><path fill="#000000" d="m289.59888 277.61728l92.00168 113.5065l-94.81586 -111.84543z" fill-rule="evenodd"/><path fill="#000000" d="m289.74332 279.8561l30.956116 142.80154l-34.27585 -142.51266z" fill-rule="evenodd"/><path fill="#000000" d="m289.16556 279.71167l-51.37523 136.81204l48.491226 -138.40091z" fill-rule="evenodd"/><path fill="#000000" d="m286.64026 280.79257l47.55237 -210.5588l-43.004883 212.29208z" fill-rule="evenodd"/><path fill="#000000" d="m286.92914 279.20612l121.01022 -178.80826l-117.32938 182.12799z" fill-rule="evenodd"/><path fill="#000000" d="m284.69272 280.145l-86.51773 -197.71558l91.207245 196.41559z" fill-rule="evenodd"/><path fill="#000000" d="m286.92914 279.06168l115.09296 -153.91386l-111.9899 157.01692z" fill-rule="evenodd"/><path fill="#000000" d="m288.8791 278.26724l161.63422 103.98062l-164.44843 -100.66089z" fill-rule="evenodd"/><path fill="#000000" d="m288.30133 278.26724l147.27438 123.53552l-150.52191 -120.57687z" fill-rule="evenodd"/><path fill="#000000" d="m284.83716 279.8561l-68.62149 -179.53047l72.880066 178.51936z" fill-rule="evenodd"/><path fill="#000000" d="m286.64026 280.5037l22.657959 -190.85706l-27.058594 190.92926z" fill-rule="evenodd"/><path fill="#000000" d="m286.42358 282.3092l117.54846 151.96631l-114.51761 -155.14163z" fill-rule="evenodd"/><path fill="#000000" d="m288.44577 280.5759l131.40033 -140.27623l-134.93674 137.75093z" fill-rule="evenodd"/><path fill="#000000" d="m287.07358 278.98944l-91.06279 -139.69846l88.17638 142.15155z" fill-rule="evenodd"/><path fill="#000000" d="m286.49582 277.90616l-166.54042 6.783905l167.19038 -3.1030884z" fill-rule="evenodd"/><path fill="#000000" d="m287.72357 281.08145l166.61502 2.7419739l-167.12057 -6.4926453z" fill-rule="evenodd"/><path fill="#000000" d="m287.36246 276.9697l-130.38925 -65.95415l129.30835 69.057205z" fill-rule="evenodd"/><path fill="#000000" d="m288.8791 278.1228l-136.59781 51.88318l138.18423 -48.996765z" fill-rule="evenodd"/><path fill="#000000" d="m287.07358 280.2172l136.09225 53.325195l-135.29782 -56.50049z" fill-rule="evenodd"/><path fill="#000000" d="m289.52667 278.91724l73.24118 -126.421936l-76.27203 125.19418z" fill-rule="evenodd"/><path fill="#000000" d="m289.6711 277.68948l-6.2759705 -146.04665l3.0284424 146.6244z" fill-rule="evenodd"/><path fill="#000000" d="m286.20935 279.13388l-125.48549 -74.89984l127.50523 72.30234z" fill-rule="evenodd"/><path fill="#000000" d="m287.94022 279.78387l-29.22522 -143.16264l32.544952 142.946z" fill-rule="evenodd"/><path fill="#000000" d="m288.80685 277.11414l117.83493 86.445496l-120.145966 -84.06464z" fill-rule="evenodd"/><path fill="#000000" d="m289.52667 280.145l13.351135 145.47128l-16.668457 -145.61572z" fill-rule="evenodd"/><path fill="#000000" d="m289.02353 279.9283l-67.68503 129.52261l64.943054 -131.47256z" fill-rule="evenodd"/><path fill="#000000" fill-opacity="0.5028" d="m285.52646 280.69504l164.01773 -128.37323l-161.65103 132.48184z" fill-rule="evenodd"/><path fill="#000000" d="m288.44577 278.26724l169.42682 133.85342l-172.96323 -130.46146z" fill-rule="evenodd"/><path fill="#000000" fill-opacity="0.5028" d="m289.73502 282.0578l-124.555725 203.50217l120.331085 -206.93137z" fill-rule="evenodd"/><path fill="#000000" fill-opacity="0.5028" d="m286.07498 282.1636l-208.29523 -3.8299255l208.98969 -0.83380127z" fill-rule="evenodd"/><path fill="#000000" fill-opacity="0.5028" d="m284.7813 283.25058l-134.7509 -145.28166l139.06984 142.16463z" fill-rule="evenodd"/><path fill="#000000" d="m287.14578 277.68948l-139.77068 -131.9757l137.17317 135.5843z" fill-rule="evenodd"/><path fill="#000000" d="m284.9816 279.35056l19.554901 165.53174l-15.874084 -166.47061z" fill-rule="evenodd"/><path fill="#000000" d="m288.9513 280.5759l143.52136 -84.85664l-145.8324 81.898026z" fill-rule="evenodd"/><path fill="#000000" d="m286.3014 279.51035l3.9202576 146.08691l-0.692749 -146.59561z" fill-rule="evenodd"/><path fill="#000000" fill-opacity="0.5028" d="m290.0322 279.27835l130.10278 -66.60173l-132.05032 63.859756z" fill-rule="evenodd"/><path fill="#000000" d="m285.71506 282.01962l-195.475 151.41873l192.66513 -156.29672z" fill-rule="evenodd"/><path fill="#000000" d="m286.93912 279.66367l165.74841 -17.532745l-166.61505 13.926514z" fill-rule="evenodd"/><path fill="#000000" d="m290.69217 277.355l53.180756 209.25882l-58.01712 -208.68106z" fill-rule="evenodd"/><path fill="#000000" d="m285.56693 276.34393l-184.58107 -53.61168l183.93352 57.94249z" fill-rule="evenodd"/><path fill="#000000" d="m286.4336 278.87164l-145.76018 -9.959198l146.41014 6.71167z" fill-rule="evenodd"/><path fill="#000000" d="m286.95663 276.3144l218.53583 26.863373l-219.7767 -21.985413z" fill-rule="evenodd"/><path fill="#000000" d="m288.16446 278.43832l-41.346207 187.68414l37.306686 -189.20078z" fill-rule="evenodd"/><path fill="#000000" d="m284.97345 276.6453l-155.80316 110.34332l158.77847 -107.11984z" fill-rule="evenodd"/><path fill="#000000" d="m287.228 279.30255l142.36823 -32.97586l-143.59595 29.872803z" fill-rule="evenodd"/><path fill="#000000" d="m288.88666 277.06613l-21.79132 -137.24538l18.182709 138.25645z" fill-rule="evenodd"/><path fill="#000000" d="m281.1267 278.7728l-32.472733 163.51196l36.223373 -163.29532z" fill-rule="evenodd"/><path fill="#000000" d="m286.46622 281.37033l181.69467 -62.776443l-183.64462 58.881332z" fill-rule="evenodd"/><path fill="#000000" d="m286.1051 280.5759l141.79047 -35.428955l-143.01822 32.3981z" fill-rule="evenodd"/><path fill="#000000" d="m293.1513 281.44254l-133.49234 169.6459l130.03055 -173.18228z" fill-rule="evenodd"/><path fill="#000000" d="m288.7511 280.2239l-103.06909 -194.4851l107.77887 192.7479z" fill-rule="evenodd"/><path fill="#000000" d="m288.96732 277.83392l-183.28351 57.944885l185.15884 -53.97516z" fill-rule="evenodd"/><path fill="#000000" d="m290.55377 277.83392l-159.54225 -48.344376l158.96687 52.097427z" fill-rule="evenodd"/><path fill="#000000" d="m289.6173 278.41168l-121.2991 114.29852l124.25772 -111.91763z" fill-rule="evenodd"/><path fill="#000000" d="m289.9784 279.27835l-133.71138 -59.025803l135.44228 56.211594z" fill-rule="evenodd"/><path fill="#000000" d="m291.34818 278.55612l-84.64238 -119.13248l87.60103 117.618256z" fill-rule="evenodd"/><path fill="#000000" d="m292.1426 277.83392l-6.71167 -166.61263l3.0308533 167.26262z" fill-rule="evenodd"/><path fill="#000000" d="m293.65683 278.33948l-24.17218 -136.88428l20.635803 137.96759z" fill-rule="evenodd"/><path fill="#000000" fill-opacity="0.5028" d="m288.47815 283.25058l-134.75089 -145.28166l139.06985 142.16463z" fill-rule="evenodd"/><path fill="#000000" d="m289.11176 278.19504l-147.06013 78.43625l149.29655 -75.405396z" fill-rule="evenodd"/><path fill="#000000" d="m291.86133 278.43832l-41.346237 187.68414l37.306686 -189.20078z" fill-rule="evenodd"/><path fill="#000000" fill-opacity="0.2793" d="m286.22012 280.28943l141.5762 36.36783l-141.14285 -39.68756z" fill-rule="evenodd"/><path fill="#000000" fill-opacity="0.5028" d="m286.05667 278.05167l193.32861 -77.55299l-192.14407 82.14937z" fill-rule="evenodd"/><path fill="#ffffff" d="m287.809 278.33948l159.83112 106.7948l-162.71753 -103.5473z" fill-rule="evenodd"/><path fill="#000000" fill-opacity="0.5028" d="m288.69363 279.2696l-149.6426 135.25415l147.0681 -139.04138z" fill-rule="evenodd"/><path fill="#ffffff" d="m283.40482 280.80038l-177.45764 -130.26062l180.92929 126.70621z" fill-rule="evenodd"/><path fill="#ffffff" d="m287.73676 278.33948l56.786957 -183.57l-61.117767 182.92001z" fill-rule="evenodd"/><path fill="#000000" fill-opacity="0.2793" d="m286.6539 276.58212l-49.05751 -203.29251l44.663437 205.01819z" fill-rule="evenodd"/><path fill="#000000" fill-opacity="0.2793" d="m285.80096 277.4116l-210.35164 -65.12892l209.52715 70.089645z" fill-rule="evenodd"/><path fill="#000000" fill-opacity="0.5028" d="m288.67322 277.97836l45.893707 138.76202l-49.141205 -138.11203z" fill-rule="evenodd"/><path fill="#ffffff" d="m287.49237 274.618l-0.3343811 0.5765991l-0.5117798 -0.50497437l-0.1774292 0.6585083l-0.5902405 -0.33776855l-0.0068359375 0.6448364l-0.6209717 -0.16378784l0.17404175 0.65167236l-0.68240356 0.0034179688l0.3514099 0.6210022l-0.6380005 0.17056274l0.46740723 0.4810791l-0.58340454 0.33096313l0.5765991 0.33776855l-0.50494385 0.5015564l0.6652832 0.18423462l-0.341156 0.5800476l0.65164185 0.010192871l-0.16714478 0.61416626l0.6584778 -0.17059326l-0.0034179688 0.6789551l0.6277771 -0.35482788l0.17062378 0.65167236l0.4810791 -0.48449707l0.34118652 0.58343506l0.3343506 -0.5765991l0.5117798 0.5117798l0.1774292 -0.6653137l0.5902405 0.3343506l0 -0.6448364l0.6312256 0.17059326l-0.17401123 -0.6584778l0.689209 0.0033874512l-0.36846924 -0.62435913l0.6482239 -0.1774292l-0.46401978 -0.4708557l0.5697937 -0.33093262l-0.57318115 -0.33779907l0.5015259 -0.50494385l-0.6652832 -0.17739868l0.3446045 -0.59368896l-0.6517029 0l0.17401123 -0.6209717l-0.66192627 0.17739868l-0.00680542 -0.6789551l-0.6209717 0.3514099l-0.17059326 -0.6448364l-0.48449707 0.4708557z" fill-rule="evenodd"/><path fill="#ffffff" d="m287.65134 278.55612l-145.90462 7.503723l146.55461 -4.256195z" fill-rule="evenodd"/><path fill="#ffffff" d="m286.1051 280.64813l-116.89847 87.67322l115.2374 -90.63187z" fill-rule="evenodd"/><path fill="#000000" fill-opacity="0.5028" d="m289.3041 277.146l-40.813293 240.63782l34.970825 -242.26678z" fill-rule="evenodd"/><path fill="#000000" fill-opacity="0.5028" d="m285.4227 280.28244l-222.31964 88.72873l221.06296 -94.03433z" fill-rule="evenodd"/><path fill="#000000" fill-opacity="0.2793" d="m287.66455 278.70056l-143.74042 -26.41101l143.59598 29.730743z" fill-rule="evenodd"/><path fill="#000000" fill-opacity="0.2793" d="m284.27258 280.79257l114.08188 121.51575l-111.70099 -124.474396z" fill-rule="evenodd"/><path fill="#000000" d="m286.96933 279.78387l-53.75609 135.8732l50.872086 -137.53427z" fill-rule="evenodd"/><path fill="#000000" d="m286.53842 278.91724l-138.68977 -46.182587l138.03981 49.430084z" fill-rule="evenodd"/><path fill="#000000" d="m287.41397 276.73828l-119.54332 -104.78731l122.211716 102.43315z" fill-rule="evenodd"/><path fill="#000000" fill-opacity="0.5028" d="m286.7489 278.6317l-116.93059 -199.24936l112.85301 202.45877z" fill-rule="evenodd"/><path fill="#000000" fill-opacity="0.5028" d="m283.8688 277.99008l-203.42499 61.324127l205.4176 -56.937195z" fill-rule="evenodd"/><path fill="#ffffff" d="m284.37183 279.06168l15.65979 145.32684l-12.4122925 -146.12128z" fill-rule="evenodd"/><path fill="#000000" fill-opacity="0.5028" d="m288.41138 272.01038l176.47067 44.94919l-178.00027 -41.08322z" fill-rule="evenodd"/><path fill="#ffffff" d="m282.60995 279.89297l-74.967606 -206.96545l79.8456 205.89001z" fill-rule="evenodd"/><path fill="#ffffff" d="m284.7329 279.13388l117.762695 -151.96631l-114.73184 155.0694z" fill-rule="evenodd"/><path fill="#ffffff" d="m284.58847 277.97836l14.432068 -145.47128l-11.18454 146.26572z" fill-rule="evenodd"/><path fill="#000000" fill-opacity="0.2793" d="m287.0868 279.9283l-127.64969 -107.228134l125.62991 110.47325z" fill-rule="evenodd"/><path fill="#ffffff" d="m285.64236 278.1228l-116.7516 87.96213l119.06267 -85.65347z" fill-rule="evenodd"/><path fill="#000000" fill-opacity="0.5028" d="m289.54422 281.85037l54.62265 232.21017l-59.967346 -231.7313z" fill-rule="evenodd"/><path fill="#000000" fill-opacity="0.5028" d="m284.05594 277.97836l-13.854309 -215.46497l18.688263 215.82608z" fill-rule="evenodd"/><path fill="#000000" fill-opacity="0.5028" d="m283.40158 279.42148l-204.31879 -97.91991l207.1207 93.60463z" fill-rule="evenodd"/><path fill="#000000" fill-opacity="0.5028" d="m284.51013 282.4552l173.48965 135.46948l-171.0079 -139.7684z" fill-rule="evenodd"/><path fill="#ffffff" d="m284.50946 277.65994l-190.84521 4.381653l191.58972 -0.082733154z" fill-rule="evenodd"/><path fill="#000000" fill-opacity="0.5028" d="m284.59317 281.02863l58.767426 -233.44597l-53.558533 235.45601z" fill-rule="evenodd"/><path fill="#000000" fill-opacity="0.2793" d="m284.77814 277.83392l-182.99464 58.664703l184.94218 -54.767212z" fill-rule="evenodd"/><path fill="#000000" fill-opacity="0.2793" d="m284.48926 280.145l156.80026 -111.270096l-154.78049 115.16518z" fill-rule="evenodd"/><path fill="#000000" fill-opacity="0.2793" d="m285.14197 282.62067l-192.41696 106.95163l190.59705 -111.58145z" fill-rule="evenodd"/><path fill="#000000" fill-opacity="0.2793" d="m284.92258 281.44254l-191.79831 -12.554321l192.66254 8.298126z" fill-rule="evenodd"/><path fill="#000000" fill-opacity="0.2793" d="m288.92654 278.7208l26.049927 -190.42612l-30.378326 190.42612z" fill-rule="evenodd"/><path fill="#000000" fill-opacity="0.2793" d="m285.47083 282.70337l131.5842 176.46497l-128.02982 -180.01935z" fill-rule="evenodd"/><path fill="#000000" fill-opacity="0.2793" d="m287.0868 280.64813l146.12128 1.8055115l-146.5546 -5.0506287z" fill-rule="evenodd"/><path fill="#000000" fill-opacity="0.2793" d="m288.45657 278.98944l75.4776 -125.12195l-78.50845 123.82199z" fill-rule="evenodd"/><path fill="#000000" fill-opacity="0.2793" d="m284.66122 278.62836l-67.251724 -129.8139l70.35478 128.66077z" fill-rule="evenodd"/><path fill="#000000" fill-opacity="0.2793" d="m288.2399 280.145l-27.997467 143.4491l24.89682 -144.53241z" fill-rule="evenodd"/><path fill="#000000" fill-opacity="0.2793" d="m283.5701 281.7104l-221.09753 -110.67146l224.23831 106.04442z" fill-rule="evenodd"/><path fill="#ffffff" d="m282.63495 280.42566l-115.0345 165.77185l119.046585 -163.6521z" fill-rule="evenodd"/><path fill="#000000" fill-opacity="0.5028" d="m287.8812 280.00055l-69.85162 128.29724l67.25171 -130.2472z" fill-rule="evenodd"/><path fill="#ffffff" d="m285.84146 277.8371l146.93686 60.595245l-146.07272 -64.12778z" fill-rule="evenodd"/><path fill="#f3f3f3" d="m284.82434 276.58096l-135.00635 -83.83037l137.3605 81.08342z" fill-rule="evenodd"/><path fill="#000000" d="m284.25937 280.5037l83.27261 173.25449l-79.59177 -175.63538z" fill-rule="evenodd"/><path fill="#000000" d="m286.56802 279.13388l20.710419 144.67688l-17.535126 -145.61572z" fill-rule="evenodd"/><path fill="#000000" d="m285.41492 278.26724l-139.69847 90.99298l142.15157 -88.10657z" fill-rule="evenodd"/><path fill="#000000" d="m289.52667 281.2981l-92.7961 194.9014l88.68434 -197.64337z" fill-rule="evenodd"/><path fill="#000000" d="m287.65134 277.90616l192.15701 3.3919373l-192.87921 0.8666382z" fill-rule="evenodd"/><path fill="#000000" d="m288.73465 278.7728l-142.72932 -31.461655l142.51265 34.781387z" fill-rule="evenodd"/><path fill="#000000" d="m289.6012 281.3798l-144.0673 166.46356l140.7611 -170.18341z" fill-rule="evenodd"/><path fill="#000000" d="m288.73465 278.19504l34.056763 -189.1984l-38.387573 188.98172z" fill-rule="evenodd"/><path fill="#000000" d="m286.49582 277.76172l-189.12616 -34.056778l188.98172 38.459793z" fill-rule="evenodd"/><path fill="#000000" d="m285.776 277.97836l-175.85202 77.49979l178.16068 -73.746735z" fill-rule="evenodd"/><path fill="#000000" d="m287.07358 281.6592l186.89212 44.810394l-186.4588 -49.138824z" fill-rule="evenodd"/><path fill="#000000" d="m287.868 281.9481l163.51196 -81.90042l-166.18173 77.85849z" fill-rule="evenodd"/><path fill="#000000" d="m285.92044 278.41168l-123.31885 112.13434l126.20526 -109.75345z" fill-rule="evenodd"/><path fill="#000000" d="m286.8569 280.5759l28.141907 -190.13724l-23.955505 191.36499z" fill-rule="evenodd"/><path fill="#000000" d="m285.9646 280.46942l160.0993 -151.17058l-157.2067 155.22133z" fill-rule="evenodd"/><path fill="#000000" d="m287.57913 277.83392l192.22922 -3.3173218l-192.73477 7.6481323z" fill-rule="evenodd"/><path fill="#000000" d="m291.25995 278.33948l61.190002 182.27243l-65.44861 -181.40579z" fill-rule="evenodd"/><path fill="#000000" d="m284.47604 279.13388l-12.698761 191.7261l17.029572 -192.08719z" fill-rule="evenodd"/><path fill="#000000" d="m284.54828 280.79257l100.87753 163.58417l-97.485596 -166.32614z" fill-rule="evenodd"/><path fill="#000000" d="m287.14578 281.6592l187.61194 41.49066l-187.25082 -45.81909z" fill-rule="evenodd"/><path fill="#000000" d="m288.1569 279.71167l-46.47148 -138.54536l49.71898 137.96758z" fill-rule="evenodd"/><path fill="#000000" d="m289.6711 277.68948l62.417725 132.19476l-65.52081 -131.18369z" fill-rule="evenodd"/><path fill="#000000" d="m286.13712 282.52585l-205.9415 64.798615l205.07486 -69.63498z" fill-rule="evenodd"/><path fill="#000000" d="m284.30936 281.37946l-208.36902 -133.23595l212.00613 128.93977z" fill-rule="evenodd"/><path fill="#000000" d="m291.25995 278.845l38.532043 188.26193l-42.862854 -187.97305z" fill-rule="evenodd"/><path fill="#000000" d="m288.80685 278.33948l53.611664 -184.58109l-57.942474 183.93109z" fill-rule="evenodd"/><path fill="#000000" d="m285.34268 277.61728l-188.98412 35.142456l190.3539 -31.02832z" fill-rule="evenodd"/><path fill="#000000" d="m288.44577 281.15366l122.95776 -100.08313l-125.98862 97.12451z" fill-rule="evenodd"/><path fill="#000000" d="m289.02353 277.47522l-86.37569 -117.834915l83.99242 120.14357z" fill-rule="evenodd"/><path fill="#000000" d="m286.7847 277.90616l11.906738 -145.61574l-8.659241 146.33794z" fill-rule="evenodd"/><path fill="#ffffff" d="m289.6711 277.83392l77.49979 123.89664l-80.458435 -122.524445z" fill-rule="evenodd"/><path fill="#000000" fill-opacity="0.5028" d="m287.18967 279.57706l137.1579 -195.28958l-133.17001 198.95825z" fill-rule="evenodd"/><path fill="#000000" fill-opacity="0.5028" d="m289.58395 278.46896l204.38007 123.121796l-207.8093 -118.89447z" fill-rule="evenodd"/><path fill="#000000" fill-opacity="0.5028" d="m289.49207 280.14532l-35.22644 205.23178l30.702087 -206.69498z" fill-rule="evenodd"/><path fill="#000000" d="m287.21802 277.76172l181.55023 -63.137558l-180.6836 67.39613z" fill-rule="evenodd"/><path fill="#000000" d="m283.95847 275.8731l-50.70726 174.09473l54.787094 -173.46625z" fill-rule="evenodd"/><path fill="#000000" d="m288.8791 278.1228l-137.53426 49.574554l139.04848 -46.615906z" fill-rule="evenodd"/><path fill="#000000" d="m286.56802 278.48392l-68.188156 129.23611l71.36345 -128.0806z" fill-rule="evenodd"/><path fill="#000000" d="m288.98193 278.30585l-139.16473 76.76529l137.9078 -80.14072z" fill-rule="evenodd"/><path fill="#000000" fill-opacity="0.5028" d="m284.83716 280.5037l-106.65039 -187.68417l111.195465 185.80884z" fill-rule="evenodd"/><path fill="#000000" d="m287.5891 275.6241l127.50284 71.4357l-129.52502 -68.76593z" fill-rule="evenodd"/><path fill="#000000" d="m283.98065 281.02652l-179.77116 -151.66968l184.40099 147.37076z" fill-rule="evenodd"/><path fill="#000000" d="m281.81628 275.8408l-106.794815 159.83112l110.76213 -157.88358z" fill-rule="evenodd"/><path fill="#000000" d="m287.73355 278.43832l69.415924 -151.533l-73.024536 150.37746z" fill-rule="evenodd"/><path fill="#000000" d="m286.29486 276.06583l85.796234 -143.73366l-82.903656 146.04994z" fill-rule="evenodd"/><path fill="#000000" d="m284.91937 280.67474l-186.67549 45.749268l186.24214 -50.08008z" fill-rule="evenodd"/><path fill="#000000" d="m286.57803 279.8081l166.61502 5.6283875l-166.97614 -9.451263z" fill-rule="evenodd"/><path fill="#000000" d="m286.36136 275.6241l-129.30835 -68.19057l128.15524 71.293655z" fill-rule="evenodd"/><path fill="#000000" fill-opacity="0.5028" d="m287.8666 280.11667l142.8237 -112.24324l-146.29538 108.77156z" fill-rule="evenodd"/><path fill="#000000" fill-opacity="0.5028" d="m290.88098 275.42395l163.52606 -80.09996l-165.77249 76.68385z" fill-rule="evenodd"/><path fill="#000000" d="m289.44415 272.73444l144.91595 110.21506l-147.7952 -107.24884z" fill-rule="evenodd"/><path fill="#ffffff" d="m285.96066 280.64813l146.12128 -0.8642578l-146.5546 -2.4530945z" fill-rule="evenodd"/><path fill="#000000" fill-opacity="0.5028" d="m284.4428 281.81522l173.76556 64.88339l-172.7901 -68.92001z" fill-rule="evenodd"/><path fill="#ffffff" d="m285.3829 281.7314l136.88428 95.10474l-135.22562 -98.42447z" fill-rule="evenodd"/><path fill="#000000" d="m286.16452 279.89307l-30.583206 -164.56366l34.385788 164.39822z" fill-rule="evenodd"/><path fill="#ffffff" d="m285.52734 276.9697l124.760864 -76.12761l-123.38867 79.15846z" fill-rule="evenodd"/><path fill="#ffffff" d="m287.54712 278.0506l43.440613 139.55643l-46.68814 -138.97867z" fill-rule="evenodd"/><path fill="#000000" d="m289.27023 278.65253l-162.82921 -38.847366l162.4156 42.567215z" fill-rule="evenodd"/><path fill="#000000" d="m285.41492 278.33948l-138.11203 93.37384l140.63733 -90.55966z" fill-rule="evenodd"/><path fill="#000000" d="m290.17767 281.46252l-102.324585 225.06552l97.61481 -228.04086z" fill-rule="evenodd"/><path fill="#000000" d="m284.47604 279.06168l-16.090729 191.50943l20.42154 -191.7261z" fill-rule="evenodd"/><path fill="#000000" d="m287.29022 280.28943l140.854 38.820892l-140.42065 -42.06842z" fill-rule="evenodd"/><path fill="#000000" d="m288.8791 278.1228l173.10767 83.48688l-175.56317 -79.878265z" fill-rule="evenodd"/><path fill="#000000" d="m289.09573 281.15366l-123.17682 147.42123l120.290436 -150.66873z" fill-rule="evenodd"/><path fill="#000000" fill-opacity="0.5028" d="m285.86765 278.4034l-168.40506 77.69467l170.63242 -74.213165z" fill-rule="evenodd"/><path fill="#000000" d="m285.19824 277.68948l12.482117 -215.53719l-7.7203674 216.47606z" fill-rule="evenodd"/><path fill="#000000" d="m286.56802 280.5037l51.16098 -185.3009l-47.11902 187.03418z" fill-rule="evenodd"/><path fill="#000000" d="m288.80685 281.2981l-140.27621 131.40033l137.75092 -134.9367z" fill-rule="evenodd"/><path fill="#000000" d="m286.06488 282.0203l-185.8088 48.994385l185.30328 -53.325195z" fill-rule="evenodd"/><path fill="#000000" d="m284.54828 280.72034l-156.8725 -111.05101l159.90335 107.87572z" fill-rule="evenodd"/><path fill="#000000" d="m286.92914 277.76172l-152.46945 -67.396164l151.38855 71.004776z" fill-rule="evenodd"/><path fill="#ffffff" d="m285.27048 280.64813l81.972626 145.11258l-79.01401 -147.42123z" fill-rule="evenodd"/><path fill="#000000" d="m288.73465 278.845l-139.48422 -43.72708l138.90646 46.97461z" fill-rule="evenodd"/><path fill="#000000" d="m289.88776 279.13388l107.95035 -98.56889l-110.47565 96.47691z" fill-rule="evenodd"/><path fill="#000000" d="m288.8791 275.52527l142.22379 33.55365l-143.45154 -30.522797z" fill-rule="evenodd"/><path fill="#000000" d="m288.73465 280.5759l-128.58615 52.822052l127.57507 -56.428253z" fill-rule="evenodd"/><path fill="#000000" fill-opacity="0.5028" d="m284.40414 281.3924l-173.48685 -115.28552l176.62 111.73663z" fill-rule="evenodd"/><path fill="#434343" d="m286.56802 280.5037l54.336273 -184.36444l-50.366547 186.16995z" fill-rule="evenodd"/><path fill="#000000" d="m286.92914 277.76172l-151.24411 -70.0659l150.16321 73.674515z" fill-rule="evenodd"/><path fill="#000000" d="m285.34268 280.79257l111.91766 123.46329l-109.53677 -126.3497z" fill-rule="evenodd"/><path fill="#666666" d="m289.88776 279.20612l109.60901 -96.62137l-112.13431 94.45715z" fill-rule="evenodd"/><path fill="#000000" d="m289.6711 277.76172l-3.6784363 -146.11888l0.4309082 146.6244z" fill-rule="evenodd"/><path fill="#000000" d="m288.1975 276.6447l35.210266 -217.3777l-40.17099 217.21223z" fill-rule="evenodd"/><path fill="#000000" d="m286.1447 275.6241l-137.53427 -49.574524l136.81204 52.822052z" fill-rule="evenodd"/><path fill="#000000" d="m286.04648 277.63742l-55.45845 -213.08154l50.831406 214.98145z" fill-rule="evenodd"/><path fill="#000000" d="m283.11386 278.87164l36.512238 188.69284l-32.325867 -190.06503z" fill-rule="evenodd"/><path fill="#000000" d="m283.18607 279.0859l80.24176 174.62427l-76.56091 -177.00516z" fill-rule="evenodd"/><path fill="#000000" d="m286.57803 277.21057l-69.488144 -128.58615l72.5912 127.433014z" fill-rule="evenodd"/><path fill="#000000" fill-opacity="0.5028" d="m283.61356 279.07034l-80.05905 -192.21378l84.65311 191.02924z" fill-rule="evenodd"/><path fill="#000000" d="m284.34158 276.34393l23.450012 -190.78484l-19.193817 191.86812z" fill-rule="evenodd"/><path fill="#000000" d="m287.228 276.9939l145.038 126.06085l-148.35773 -123.17444z" fill-rule="evenodd"/><path fill="#000000" d="m284.0527 280.1692l-131.90587 -126.63858l135.65895 123.53552z" fill-rule="evenodd"/><path fill="#000000" d="m283.90906 274.95712l-215.50311 45.07956l217.17755 -40.347137z" fill-rule="evenodd"/><path fill="#000000" d="m280.58798 272.6167l-110.843155 -124.50453l108.43785 127.3965z" fill-rule="evenodd"/><path fill="#000000" d="m286.95663 280.53058l180.01935 63.559906l-179.19211 -67.77609z" fill-rule="evenodd"/><path fill="#000000" d="m287.95023 276.1995l-84.28131 -119.34915l81.89801 121.66019z" fill-rule="evenodd"/><path fill="#000000" d="m288.67 276.56058l75.260956 125.26883l-78.364044 -123.96884z" fill-rule="evenodd"/><path fill="#ffffff" d="m279.66135 279.30255l-129.52502 50.511017l128.58615 -54.117218z" fill-rule="evenodd"/><path fill="#434343" d="m288.09225 279.66367l-87.67085 171.01566l84.06462 -173.54099z" fill-rule="evenodd"/><path fill="#000000" fill-opacity="0.5028" d="m286.4542 278.217l-238.77032 17.800323l239.13022 -23.192902z" fill-rule="evenodd"/><path fill="#000000" fill-opacity="0.5028" d="m289.1874 278.54794l-9.008667 167.12537l5.2088623 -167.86987z" fill-rule="evenodd"/><path fill="#000000" fill-opacity="0.5028" d="m288.457 276.8046l145.5228 -149.99542l-149.36957 147.24847z" fill-rule="evenodd"/><path fill="#000000" d="m286.7551 281.2259l-130.75276 140.78177l128.01079 -144.17374z" fill-rule="evenodd"/><path fill="#000000" d="m283.07425 277.76172l-186.02548 48.274567l187.68414 -44.30487z" fill-rule="evenodd"/><path fill="#434343" d="m288.307 278.9142l-134.25443 -164.40242l130.84915 167.86888z" fill-rule="evenodd"/><path fill="#434343" d="m286.89954 278.19504l186.8175 108.16699l-189.84836 -104.2695z" fill-rule="evenodd"/><path fill="#000000" d="m283.50757 281.15366l104.483765 102.249756l-102.46399 -104.919495z" fill-rule="evenodd"/><path fill="#000000" d="m285.09402 280.2172l-31.100555 -163.80084l27.491943 165.02618z" fill-rule="evenodd"/><path fill="#000000" fill-opacity="0.5028" d="m285.48798 278.19437l207.66812 15.735413l-208.71329 -11.069366z" fill-rule="evenodd"/><path fill="#000000" d="m283.02386 280.80072l91.00235 167.86987l-87.5307 -170.43158z" fill-rule="evenodd"/><path fill="#000000" d="m287.7269 277.28876l78.33386 -163.49973l-82.259186 162.2428z" fill-rule="evenodd"/><path fill="#000000" d="m284.5205 280.22705l113.58502 142.30023l-110.74393 -145.25568z" fill-rule="evenodd"/><path fill="#000000" d="m285.6677 280.38983l-166.79446 -14.383026l167.6217 10.6631775z" fill-rule="evenodd"/><path fill="#000000" fill-opacity="0.5028" d="m284.2996 277.76172l-189.70392 -30.739456l189.63171 35.14247z" fill-rule="evenodd"/><path fill="#000000" fill-opacity="0.5028" d="m291.3775 276.23663l43.869476 235.44717l-49.265045 -235.17725z" fill-rule="evenodd"/><path fill="#000000" fill-opacity="0.5028" d="m286.74368 277.65945l-4.3816223 -190.92795l0.16543579 191.58972z" fill-rule="evenodd"/><path fill="#000000" fill-opacity="0.5028" d="m284.87735 277.68948l77.06647 -124.110886l-74.54114 126.20528z" fill-rule="evenodd"/><path fill="#000000" fill-opacity="0.5028" d="m287.49237 282.9779l223.97043 -41.350433l-225.75833 35.50479z" fill-rule="evenodd"/></g></svg>